<svg width="16" height="16" class="mr-2 s-[20px]" viewBox="0 0 24 24" fill="none" xmlns="http://www.w3.org/2000/svg"><path fill-rule="evenodd" clip-rule="evenodd" d="M2.24789 16.2975C1.0066 15.326 0.38595 14.8403 0.153411 14.2802C0.0510949 14.0338 -4.199e-05 13.7778 2.587e-08 13.5218V10.3914H0.782609V11.9467C1.12511 11.6256 1.60265 11.2518 2.24789 10.7469L8.45378 5.89008C9.69507 4.91863 10.3157 4.43291 11.0314 4.25092C11.6609 4.09084 12.3391 4.09084 12.9686 4.25092C13.6843 4.43291 14.3049 4.91863 15.5462 5.89007L15.5462 5.89008L21.7521 10.7469L21.7521 10.7469L21.7521 10.7469C22.3974 11.2519 22.8749 11.6256 23.2174 11.9467V10.3914H24V13.5218H24C24 13.7778 23.9489 14.0338 23.8466 14.2802C23.614 14.8403 22.9934 15.326 21.7521 16.2974L21.7521 16.2975L15.5462 21.1542C14.3049 22.1257 13.6843 22.6114 12.9686 22.7934C12.3391 22.9535 11.6609 22.9535 11.0314 22.7934C10.3157 22.6114 9.69507 22.1257 8.45378 21.1542L2.24789 16.2975Z" fill="#DBDBDB"></path><path d="M2.24789 13.1666C1.0066 12.1952 0.38595 11.7094 0.153411 11.1493C-0.0511369 10.6567 -0.0511369 10.1259 0.153411 9.63327C0.38595 9.07317 1.0066 8.58745 2.24789 7.616L8.45378 2.75922C9.69507 1.78777 10.3157 1.30205 11.0314 1.12006C11.6609 0.95998 12.3391 0.95998 12.9686 1.12006C13.6843 1.30205 14.3049 1.78777 15.5462 2.75922L21.7521 7.616C22.9934 8.58745 23.614 9.07317 23.8466 9.63327C24.0511 10.1259 24.0511 10.6567 23.8466 11.1493C23.614 11.7094 22.9934 12.1952 21.7521 13.1666L15.5462 18.0234C14.3049 18.9948 13.6843 19.4806 12.9686 19.6625C12.3391 19.8226 11.6609 19.8226 11.0314 19.6625C10.3157 19.4806 9.69507 18.9948 8.45378 18.0234L2.24789 13.1666Z" fill="white"></path><path d="M9.34033 7.15345C8.71969 6.66772 8.40936 6.42486 8.29309 6.14481C8.19082 5.89847 8.19082 5.63312 8.29309 5.38678C8.40936 5.10673 8.71969 4.86387 9.34033 4.37814L10.2269 3.68432C10.8475 3.1986 11.1579 2.95573 11.5157 2.86474C11.8305 2.7847 12.1695 2.7847 12.4843 2.86474C12.8421 2.95573 13.1525 3.1986 13.7731 3.68432L14.6597 4.37814C15.2803 4.86387 15.5906 5.10673 15.7069 5.38678C15.8092 5.63312 15.8092 5.89847 15.7069 6.14481C15.5906 6.42486 15.2803 6.66772 14.6597 7.15345L13.7731 7.84727C13.1525 8.333 12.8421 8.57586 12.4843 8.66685C12.1695 8.74689 11.8305 8.74689 11.5157 8.66685C11.1579 8.57586 10.8475 8.333 10.2269 7.84727L9.34033 7.15345Z" fill="#FF8686"></path><path d="M15.2507 11.779C14.6301 11.2932 14.3197 11.0504 14.2035 10.7703C14.1012 10.524 14.1012 10.2586 14.2035 10.0123C14.3197 9.73224 14.6301 9.48937 15.2507 9.00365L16.1373 8.30982C16.7579 7.8241 17.0682 7.58124 17.4261 7.49025C17.7408 7.4102 18.0799 7.4102 18.3947 7.49025C18.7525 7.58124 19.0628 7.8241 19.6835 8.30982L20.57 9.00365C21.1907 9.48937 21.501 9.73224 21.6173 10.0123C21.7195 10.2586 21.7195 10.524 21.6173 10.7703C21.501 11.0504 21.1907 11.2932 20.57 11.779L19.6835 12.4728C19.0628 12.9585 18.7525 13.2014 18.3947 13.2924C18.0799 13.3724 17.7408 13.3724 17.4261 13.2924C17.0682 13.2014 16.7579 12.9585 16.1373 12.4728L15.2507 11.779Z" fill="#5AFF88"></path><path d="M3.42996 11.779C2.80932 11.2932 2.49899 11.0504 2.38272 10.7703C2.28045 10.524 2.28045 10.2586 2.38272 10.0123C2.49899 9.73224 2.80932 9.48937 3.42996 9.00365L4.31652 8.30982C4.93717 7.8241 5.24749 7.58124 5.60533 7.49025C5.9201 7.4102 6.25916 7.4102 6.57393 7.49025C6.93177 7.58124 7.24209 7.8241 7.86274 8.30982L14.6597 13.6292C15.2803 14.1149 15.5906 14.3577 15.7069 14.6378C15.8092 14.8841 15.8092 15.1495 15.7069 15.3958C15.5906 15.6759 15.2803 15.9187 14.6597 16.4045L13.7731 17.0983C13.1525 17.584 12.8421 17.8269 12.4843 17.9179C12.1695 17.9979 11.8305 17.9979 11.5157 17.9179C11.1579 17.8269 10.8475 17.584 10.2269 17.0983L3.42996 11.779Z" fill="#768CFF"></path></svg>