<svg width="16" height="16" class="h-full w-full" viewBox="0 0 40 40" fill="none" xmlns="http://www.w3.org/2000/svg"><rect width="40" height="40" rx="10" fill="#1877F2"></rect><g clip-path="url(#clip0_3062_7327)"><path d="M32 20.0733C32 13.4054 26.6274 8 20 8C13.3726 8 8 13.4054 8 20.0733C8 26.0995 12.3882 31.0943 18.125 32V23.5633H15.0781V20.0733H18.125V17.4134C18.125 14.3875 19.9165 12.7162 22.6576 12.7162C23.9705 12.7162 25.3438 12.952 25.3438 12.952V15.9231H23.8306C22.3399 15.9231 21.875 16.8538 21.875 17.8086V20.0733H25.2031L24.6711 23.5633H21.875V32C27.6118 31.0943 32 26.0995 32 20.0733Z" fill="white"></path></g><defs><clipPath id="clip0_3062_7327"><rect width="24" height="24" fill="white" transform="translate(8 8)"></rect></clipPath></defs></svg>